<svg xmlns="http://www.w3.org/2000/svg" width="45" height="40" viewBox="0 0 60 48"><title>Star</title><path d="M16.3 43.405c.003-.083.937-3.507 2.076-7.608 1.74-6.26 2.048-7.485 1.924-7.628-.082-.094-2.737-2.33-5.9-4.972l-5.753-4.803 7.6-.03 7.602-.028 2.52-7.57c1.388-4.163 2.552-7.57 2.587-7.57.035 0 1.18 3.395 2.548 7.543l2.486 7.542 7.622.057 7.622.055-5.876 4.905-5.907 4.927c-.016.013.915 3.443 2.07 7.62 1.158 4.18 2.087 7.614 2.067 7.633-.02.02-2.86-1.967-6.308-4.414-3.45-2.448-6.326-4.432-6.392-4.41-.1.036-10.376 7.29-12.055 8.51-.322.234-.535.33-.533.24z" fill="none"/><path d="M0-2.667v53.334h60V-2.667H0zm30.292 1.71l7.125 18.874h21.416L42.167 30.083l5.958 18.875-17.833-11.083-17.834 11.083 5.917-18.875L1.75 17.917h21.375L30.292-.958z" fill="#fff"/><path d="M30.277-.952L37.412 17.9h21.404L42.168 30.1l5.946 18.852-17.837-11.09-17.837 11.09L18.386 30.1 1.738 17.9h21.404z" fill="none" stroke="#000" stroke-width=".335" stroke-linejoin="round"/></svg>